<?xml version="1.0" standalone="no"?><!DOCTYPE svg PUBLIC "-//W3C//DTD SVG 1.1//EN" "http://www.w3.org/Graphics/SVG/1.1/DTD/svg11.dtd"><svg t="1613092426311" class="icon" viewBox="0 0 1024 1024" version="1.1" xmlns="http://www.w3.org/2000/svg" p-id="6067" xmlns:xlink="http://www.w3.org/1999/xlink" width="200" height="200"><defs><style type="text/css"></style></defs><path d="M761.111423 174.855641l-93.468629 0-105.094129 193.64278c-28.027453 52.477735-45.170139 87.360315-51.429275 104.647743l-1.789193 0c-18.489142-42.038138-70.660367-141.465474-156.52462-298.290523L253.971802 174.855641l183.804041 315.732421L287.065189 490.588063l0 69.763945 176.648484 0 0 96.151811L287.065189 656.503819l0 70.65915 176.648484 0 0 139.977926 87.65223 0L551.365903 727.162969l170.388131 0L721.754034 656.503819 551.367119 656.503819l0-96.151811 170.388131 0 0-69.763945-146.237062 0L761.111423 174.855641z" p-id="6068"></path></svg>