<?xml version="1.0" standalone="no"?><!DOCTYPE svg PUBLIC "-//W3C//DTD SVG 1.1//EN" "http://www.w3.org/Graphics/SVG/1.1/DTD/svg11.dtd"><svg t="1613092456657" class="icon" viewBox="0 0 1024 1024" version="1.1" xmlns="http://www.w3.org/2000/svg" p-id="6800" xmlns:xlink="http://www.w3.org/1999/xlink" width="200" height="200"><defs><style type="text/css"></style></defs><path d="M238.074 758.565c17.674 0 32-15.147 32-33.832v-191.29c0-18.685-14.326-33.832-32-33.832s-32 15.147-32 33.832v191.29c0 18.685 14.327 33.832 32 33.832zM422.963 758.565c17.673 0 32-15.147 32-33.832V318.208c0-18.685-14.327-33.833-32-33.833s-32 15.148-32 33.833v406.525c0 18.685 14.327 33.832 32 33.832zM607.852 758.565c17.673 0 32-15.147 32-33.832V391.77c0-18.686-14.327-33.833-32-33.833s-32 15.147-32 33.833v332.963c0 18.685 14.327 33.832 32 33.832zM792.74 758.565c17.674 0 32-15.147 32-33.832v-515.9c0-18.685-14.326-33.833-32-33.833s-32 15.148-32 33.833v515.9c0 18.685 14.327 33.832 32 33.832z" p-id="6801"></path><path d="M960.019 831.67L96 831.17V133.5c0-17.673-14.327-32-32-32s-32 14.327-32 32v719.293c0 23.345 18.992 42.35 42.34 42.365l885.641 0.512h0.02c17.664 0 31.989-14.315 31.999-31.982 0.01-17.672-14.309-32.008-31.981-32.018z" p-id="6802"></path></svg>