<?xml version="1.0" standalone="no"?><!DOCTYPE svg PUBLIC "-//W3C//DTD SVG 1.1//EN" "http://www.w3.org/Graphics/SVG/1.1/DTD/svg11.dtd"><svg t="1613092325685" class="icon" viewBox="0 0 1024 1024" version="1.1" xmlns="http://www.w3.org/2000/svg" p-id="4489" xmlns:xlink="http://www.w3.org/1999/xlink" width="200" height="200"><defs><style type="text/css"></style></defs><path d="M753.553297 328.10436l-187.585729-143.913513a74.668973 74.668973 0 0 0-90.868469 0l-187.58573 143.913513a111.680577 111.680577 0 0 0-43.727567 88.562163v364.211891A108.341045 108.341045 0 0 0 352.126847 889.311712H688.93982a108.359495 108.359495 0 0 0 108.359495-108.359496v-364.211892a111.699027 111.699027 0 0 0-43.746018-88.635964z m6.605262 447.423424A76.864577 76.864577 0 0 1 683.275532 852.410811H357.329874A76.864577 76.864577 0 0 1 280.446847 775.527784v-365.318919a66.624577 66.624577 0 0 1 27.306667-53.783063L500.007207 215.87027a34.280937 34.280937 0 0 1 40.590991 0l192.253694 140.555532a66.624577 66.624577 0 0 1 27.306667 53.783063z" p-id="4490" fill="#2c2c2c"></path><path d="M520.542559 400.374775a64.576577 64.576577 0 1 0 64.576576 64.576576 64.576577 64.576577 0 0 0-64.576576-64.576576z m0 92.252252a27.675676 27.675676 0 1 1 27.675675-27.675676 27.675676 27.675676 0 0 1-27.675675 27.675676z" p-id="4491" fill="#2c2c2c"></path></svg>